<svg xmlns="http://www.w3.org/2000/svg" width="36" height="19.5" viewBox="0 0 36 19.5">
  <path id="Icon_material-group-add" data-name="Icon material-group-add" d="M12,15H7.5V10.5h-3V15H0v3H4.5v4.5h3V18H12Zm15,1.5a4.5,4.5,0,1,0-1.365-8.79A7.4,7.4,0,0,1,26.985,12a7.547,7.547,0,0,1-1.35,4.29A4.485,4.485,0,0,0,27,16.5Zm-7.5,0A4.5,4.5,0,1,0,15,12,4.481,4.481,0,0,0,19.5,16.5Zm9.93,3.24A5.55,5.55,0,0,1,31.5,24v3H36V24C36,21.69,32.445,20.265,29.43,19.74ZM19.5,19.5c-3,0-9,1.5-9,4.5v3h18V24C28.5,21,22.5,19.5,19.5,19.5Z" transform="translate(0 -7.5)" fill="#fff"/>
</svg>
