<svg xmlns="http://www.w3.org/2000/svg" width="123.432" height="123.432" viewBox="0 0 123.432 123.432">
  <path id="Icon_awesome-user-circle" data-name="Icon awesome-user-circle" d="M61.716.562a61.716,61.716,0,1,0,61.716,61.716A61.705,61.705,0,0,0,61.716.562Zm0,23.89a21.9,21.9,0,1,1-21.9,21.9A21.9,21.9,0,0,1,61.716,24.453Zm0,85.606A47.687,47.687,0,0,1,25.259,93.087,27.746,27.746,0,0,1,49.771,78.205a6.089,6.089,0,0,1,1.767.274A32.949,32.949,0,0,0,61.716,80.2a32.824,32.824,0,0,0,10.178-1.717,6.089,6.089,0,0,1,1.767-.274A27.746,27.746,0,0,1,98.173,93.087,47.687,47.687,0,0,1,61.716,110.059Z" transform="translate(0 -0.563)" fill="#a0a0a0"/>
</svg>
